<svg xmlns="http://www.w3.org/2000/svg" xmlns:xlink="http://www.w3.org/1999/xlink" width="318" height="212.161" viewBox="0 0 318 212.161">
  <defs>
    <linearGradient id="linear-gradient" x1="0.03" y1="0.914" x2="0.974" y2="0.066" gradientUnits="objectBoundingBox">
      <stop offset="0" stop-color="#f18282"/>
      <stop offset="1" stop-color="#de3163"/>
    </linearGradient>
    <filter id="Rectangle_5" x="0" y="0" width="318" height="188" filterUnits="userSpaceOnUse">
      <feOffset dy="3" input="SourceAlpha"/>
      <feGaussianBlur stdDeviation="3" result="blur"/>
      <feFlood flood-opacity="0.161"/>
      <feComposite operator="in" in2="blur"/>
      <feComposite in="SourceGraphic"/>
    </filter>
    <linearGradient id="linear-gradient-2" x1="3.798" y1="0.5" x2="0" y2="0.5" gradientUnits="objectBoundingBox">
      <stop offset="0" stop-color="#de3163"/>
      <stop offset="1" stop-color="#f18282"/>
    </linearGradient>
    <filter id="Rectangle_4" x="23" y="22" width="46" height="40" filterUnits="userSpaceOnUse">
      <feOffset dy="3" input="SourceAlpha"/>
      <feGaussianBlur stdDeviation="3" result="blur-2"/>
      <feFlood flood-opacity="0.259"/>
      <feComposite operator="in" in2="blur-2"/>
      <feComposite in="SourceGraphic"/>
    </filter>
  </defs>
  <g transform="matrix(1, 0, 0, 1, 0, 0)" filter="url(#Rectangle_5)">
    <rect id="Rectangle_5-2" data-name="Rectangle 5" width="300" height="170" rx="37" transform="translate(9 6)" fill="url(#linear-gradient)"/>
  </g>
  <g id="Component_4_1" data-name="Component 4 – 1" transform="translate(32 28)">
    <g transform="matrix(1, 0, 0, 1, -32, -28)" filter="url(#Rectangle_4)">
      <g id="Rectangle_4-2" data-name="Rectangle 4" transform="translate(32 28)" stroke="rgba(225,222,222,0.81)" stroke-width="1" fill="url(#linear-gradient-2)">
        <rect width="28" height="22" rx="5" stroke="none"/>
        <rect x="0.5" y="0.5" width="27" height="21" rx="4.5" fill="none"/>
      </g>
    </g>
    <g id="Component_2_2" data-name="Component 2 – 2" transform="translate(3.5 3.5)" opacity="0.85">
      <line id="Line_2" data-name="Line 2" y2="16" transform="translate(14)" fill="none" stroke="rgba(225,222,222,0.81)" stroke-width="2"/>
      <line id="Line_1" data-name="Line 1" y2="12" transform="translate(6 4)" fill="none" stroke="rgba(225,222,222,0.81)" stroke-linecap="round" stroke-width="2"/>
      <line id="Line_3" data-name="Line 3" x2="6" transform="translate(0 4)" fill="none" stroke="rgba(225,222,222,0.81)" stroke-width="2"/>
      <path id="Path_2" data-name="Path 2" d="M-.951,0H4" transform="translate(1 10)" fill="none" stroke="rgba(225,222,222,0.81)" stroke-width="2"/>
      <line id="Line_5" data-name="Line 5" x2="4" transform="translate(15 4)" fill="none" stroke="rgba(225,222,222,0.81)" stroke-width="2"/>
      <line id="Line_6" data-name="Line 6" x2="4" transform="translate(15 10)" fill="none" stroke="rgba(225,222,222,0.81)" stroke-width="2"/>
    </g>
  </g>
  <g id="Path_7" data-name="Path 7" transform="translate(93.364 3.187) rotate(30)" fill="#e694a5">
    <path d="M62.841-1.932l59.5,103.06L13.419,117.97Z" stroke="none"/>
    <path d="M 62.99095153808594 0.3276748657226563 L 15.01931762695313 116.7103042602539 L 120.7463989257813 100.3630523681641 L 62.99095153808594 0.3276748657226563 M 62.84087371826172 -1.932289123535156 L 122.3428039550781 101.1280975341797 L 13.41860961914063 117.9696807861328 L 62.84087371826172 -1.932289123535156 Z" stroke="none" fill="rgba(225,222,222,0.31)"/>
  </g>
  <g id="Path_8" data-name="Path 8" transform="translate(137.289 102.509) rotate(-30)" fill="#e694a5">
    <path d="M80.108-16.086,124.346,124.8a35.047,35.047,0,0,1-20.882,10.974c-13.472,1.919-24.506-5.421-24.506-5.421L16.412,94.238Z" stroke="none"/>
    <path d="M 79.83556365966797 -13.61466217041016 L 17.77783966064453 93.87248229980469 L 79.45766448974609 129.4833221435547 L 79.485107421875 129.4992218017578 L 79.51092529296875 129.5163421630859 C 79.53202819824219 129.5303192138672 81.66117858886719 130.9316864013672 85.11152648925781 132.3127899169922 C 88.27760314941406 133.5801086425781 93.24030303955078 135.0908050537109 98.90280151367188 135.0908050537109 C 100.3920440673828 135.0908050537109 101.8792266845703 134.9864959716797 103.3230590820313 134.7808227539063 C 106.2925262451172 134.3578033447266 109.2020416259766 133.5389251708984 111.9708023071289 132.346923828125 C 114.1912231445313 131.3910064697266 116.3275451660156 130.1940002441406 118.320442199707 128.7891693115234 C 120.8742828369141 126.9889068603516 122.5412521362305 125.299072265625 123.2226104736328 124.5575561523438 L 79.83556365966797 -13.61466217041016 M 80.10768127441406 -16.08597564697266 L 124.3457489013672 124.7964248657227 C 124.3457489013672 124.7964248657227 116.9358444213867 133.8516998291016 103.4641036987305 135.7708282470703 C 101.9067687988281 135.99267578125 100.3817291259766 136.0907897949219 98.90280151367188 136.0907897949219 C 87.58833312988281 136.0907897949219 78.95766448974609 130.3493499755859 78.95766448974609 130.3493499755859 L 16.41182708740234 94.23850250244141 L 80.10768127441406 -16.08597564697266 Z" stroke="none" fill="rgba(225,222,222,0.31)"/>
  </g>
</svg>
