<svg xmlns="http://www.w3.org/2000/svg" xmlns:xlink="http://www.w3.org/1999/xlink" width="318" height="188" viewBox="0 0 318 188">
  <defs>
    <linearGradient id="linear-gradient" y1="0.5" x2="1" y2="0.5" gradientUnits="objectBoundingBox">
      <stop offset="0" stop-color="#b836f8"/>
      <stop offset="1" stop-color="#6e00ff"/>
    </linearGradient>
    <filter id="Rectangle_1" x="0" y="0" width="318" height="188" filterUnits="userSpaceOnUse">
      <feOffset dy="3" input="SourceAlpha"/>
      <feGaussianBlur stdDeviation="3" result="blur"/>
      <feFlood flood-opacity="0.259"/>
      <feComposite operator="in" in2="blur"/>
      <feComposite in="SourceGraphic"/>
    </filter>
    <linearGradient id="linear-gradient-2" x1="1" y1="0.297" x2="0.068" y2="0.283" gradientUnits="objectBoundingBox">
      <stop offset="0" stop-color="#fc03d3"/>
      <stop offset="1" stop-color="#c98334"/>
    </linearGradient>
    <linearGradient id="linear-gradient-3" x1="5.731" y1="0.5" x2="0" y2="0.5" xlink:href="#linear-gradient-2"/>
    <filter id="Rectangle_2" x="19" y="17" width="46" height="40" filterUnits="userSpaceOnUse">
      <feOffset dy="3" input="SourceAlpha"/>
      <feGaussianBlur stdDeviation="3" result="blur-2"/>
      <feFlood flood-opacity="0.259"/>
      <feComposite operator="in" in2="blur-2"/>
      <feComposite in="SourceGraphic"/>
    </filter>
  </defs>
  <g transform="matrix(1, 0, 0, 1, 0, 0)" filter="url(#Rectangle_1)">
    <rect id="Rectangle_1-2" data-name="Rectangle 1" width="300" height="170" rx="37" transform="translate(9 6)" fill="url(#linear-gradient)"/>
  </g>
  <g id="Path_1" data-name="Path 1" transform="translate(9.525 6.539)" fill="url(#linear-gradient-2)">
    <path d="M.27,76.246V32.7A37.46,37.46,0,0,1,9.933,10.881C19.281.4,33.618-.539,33.618-.539h86.335l32.675,26.793L192.04,60.119,276.178,2.276A36.776,36.776,0,0,1,288.2,10.583C301.347,22.858,298.4,38.4,298.4,64.2c-16.057,15.32-106.357,87.842-106.357,87.842L75.7,50.144.27,104.457Z" stroke="none"/>
    <path d="M 192.0676116943359 150.7359161376953 C 200.2224731445313 144.1797637939453 281.491943359375 78.78397369384766 297.3975524902344 63.76918411254883 C 297.4026184082031 59.67905044555664 297.4786376953125 55.90149688720703 297.55224609375 52.244140625 C 297.738037109375 43.01444625854492 297.8984985351563 35.04336929321289 296.6553649902344 28.36733055114746 C 296.0105285644531 24.90425491333008 295.0176391601563 21.91425514221191 293.6199340820313 19.22652435302734 C 292.1112060546875 16.32521629333496 290.1166381835938 13.736985206604 287.522216796875 11.31390857696533 L 287.490478515625 11.28429317474365 L 287.4614562988281 11.25198554992676 C 283.4994506835938 6.849063873291016 277.9451904296875 4.154501438140869 276.2892761230469 3.413240194320679 L 192.6065216064453 60.94329452514648 L 191.9721832275391 61.37940979003906 L 191.3882904052734 60.87771606445313 L 151.9850921630859 27.01905250549316 L 119.5953063964844 0.460677444934845 L 33.65467834472656 0.460677444934845 C 33.30831527709961 0.4873446524143219 29.94857025146484 0.7758265137672424 25.59048652648926 2.192869663238525 C 22.8996410369873 3.06783127784729 20.3741397857666 4.193485260009766 18.08414077758789 5.538639068603516 C 15.23356342315674 7.213062286376953 12.74213981628418 9.234369277954102 10.67910194396973 11.54640865325928 C 8.611486434936523 13.86356163024902 6.830678462982178 16.41663932800293 5.3861403465271 19.13467788696289 C 4.228716850280762 21.31252288818359 3.282909393310547 23.60129356384277 2.575024843215942 25.93740844726563 C 1.404291152954102 29.80110168457031 1.27745521068573 32.53065872192383 1.26994788646698 32.72118759155273 L 1.26994788646698 76.24587249755859 L 1.26994788646698 102.5051040649414 L 75.11137390136719 49.33217620849609 L 75.75652313232422 48.86759948730469 L 76.35456085205078 49.39140701293945 L 192.0676116943359 150.7359161376953 M 192.0400238037109 152.0410614013672 L 75.69571685791016 50.1436767578125 L 0.2699478566646576 104.4574813842773 L 0.2699478566646576 76.24587249755859 L 0.2699478566646576 32.70394515991211 C 0.2699478566646576 32.70394515991211 0.5844863057136536 21.35737037658691 9.932948112487793 10.88063907623291 C 19.28141021728516 0.4039082229137421 33.61825561523438 -0.539322555065155 33.61825561523438 -0.539322555065155 L 119.9528732299805 -0.539322555065155 L 152.6283721923828 26.25333213806152 L 192.0400238037109 60.11925506591797 L 276.17822265625 2.276100635528564 C 276.17822265625 2.276100635528564 283.302490234375 5.135177612304688 288.2048034667969 10.58310031890869 C 301.34716796875 22.85760116577148 298.3972473144531 38.39644622802734 298.3973083496094 64.19905853271484 C 282.3407287597656 79.51937103271484 192.0400238037109 152.0410614013672 192.0400238037109 152.0410614013672 Z" stroke="none" fill="rgba(255,255,255,0.29)"/>
  </g>
  <g transform="matrix(1, 0, 0, 1, 0, 0)" filter="url(#Rectangle_2)">
    <g id="Rectangle_2-2" data-name="Rectangle 2" transform="translate(28 23)" stroke="rgba(225,222,222,0.81)" stroke-width="1" fill="url(#linear-gradient-3)">
      <rect width="28" height="22" rx="5" stroke="none"/>
      <rect x="0.5" y="0.5" width="27" height="21" rx="4.5" fill="none"/>
    </g>
  </g>
  <line id="Line_2" data-name="Line 2" y2="16" transform="translate(45.5 26.5)" fill="none" stroke="rgba(225,222,222,0.81)" stroke-width="2"/>
  <line id="Line_1" data-name="Line 1" y2="12" transform="translate(37.5 30.5)" fill="none" stroke="rgba(225,222,222,0.81)" stroke-linecap="round" stroke-width="2"/>
  <line id="Line_3" data-name="Line 3" x2="6" transform="translate(31.5 30.5)" fill="none" stroke="rgba(225,222,222,0.81)" stroke-width="2"/>
  <path id="Path_2" data-name="Path 2" d="M-.951,0H4" transform="translate(32.5 36.5)" fill="none" stroke="rgba(225,222,222,0.81)" stroke-width="2"/>
  <line id="Line_5" data-name="Line 5" x2="4" transform="translate(46.5 30.5)" fill="none" stroke="rgba(225,222,222,0.81)" stroke-width="2"/>
  <line id="Line_6" data-name="Line 6" x2="4" transform="translate(46.5 36.5)" fill="none" stroke="rgba(225,222,222,0.81)" stroke-width="2"/>
</svg>
