<svg xmlns="http://www.w3.org/2000/svg" xmlns:xlink="http://www.w3.org/1999/xlink" width="317.67" height="186.603" viewBox="0 0 317.67 186.603">
  <defs>
    <linearGradient id="linear-gradient" y1="0.5" x2="1" y2="0.5" gradientUnits="objectBoundingBox">
      <stop offset="0" stop-color="#ff5700"/>
      <stop offset="0.142" stop-color="#ff6f00"/>
      <stop offset="1" stop-color="orange"/>
    </linearGradient>
    <linearGradient id="linear-gradient-2" x1="0.931" y1="0.955" x2="-0.341" y2="0.107" gradientUnits="objectBoundingBox">
      <stop offset="0" stop-color="orange"/>
      <stop offset="1" stop-color="#ff7f00"/>
    </linearGradient>
    <filter id="Path_11" x="0" y="11.386" width="105.919" height="154.959" filterUnits="userSpaceOnUse">
      <feOffset dy="3" input="SourceAlpha"/>
      <feGaussianBlur stdDeviation="3" result="blur"/>
      <feFlood flood-opacity="0.161"/>
      <feComposite operator="in" in2="blur"/>
      <feComposite in="SourceGraphic"/>
    </filter>
    <linearGradient id="linear-gradient-3" x1="-0.156" y1="-0.028" x2="0.669" y2="1.035" gradientUnits="objectBoundingBox">
      <stop offset="0" stop-color="orange"/>
      <stop offset="1" stop-color="#ff5700"/>
    </linearGradient>
    <filter id="Path_12" x="106.353" y="0" width="211.316" height="186.603" filterUnits="userSpaceOnUse">
      <feOffset dy="3" input="SourceAlpha"/>
      <feGaussianBlur stdDeviation="3" result="blur-2"/>
      <feFlood flood-opacity="0.161"/>
      <feComposite operator="in" in2="blur-2"/>
      <feComposite in="SourceGraphic"/>
    </filter>
    <linearGradient id="linear-gradient-4" x1="3.09" y1="0.5" x2="0" y2="0.5" xlink:href="#linear-gradient-2"/>
    <filter id="Rectangle_4" x="27" y="17.85" width="46" height="40" filterUnits="userSpaceOnUse">
      <feOffset dy="3" input="SourceAlpha"/>
      <feGaussianBlur stdDeviation="3" result="blur-3"/>
      <feFlood flood-opacity="0.259"/>
      <feComposite operator="in" in2="blur-3"/>
      <feComposite in="SourceGraphic"/>
    </filter>
  </defs>
  <path id="Path_13" data-name="Path 13" d="M37,0H263a37,37,0,0,1,37,37v96a37,37,0,0,1-37,37H37A37,37,0,0,1,0,133V37A37,37,0,0,1,37,0Z" transform="translate(9 4.85)" fill="url(#linear-gradient)"/>
  <g transform="matrix(1, 0, 0, 1, 0, 0)" filter="url(#Path_11)">
    <g id="Path_11-2" data-name="Path 11" transform="translate(7.4 8.85)" fill="url(#linear-gradient-2)">
      <path d="M11.52,8.713c0-4.57,75.045,81.1,75.045,81.1s10.049,30.854-6.908,47.053-36.426,4.628-36.426,4.628L2.264,97.525s-1.488-50.176,0-68.657C2.979,19.99,8.581,11.022,11.52,8.713Z" stroke="none"/>
      <path d="M 11.85971069335938 9.733749389648438 C 10.61412048339844 10.846435546875 8.697914123535156 13.3533935546875 6.948692321777344 16.78172302246094 C 4.874809265136719 20.84634399414063 3.565086364746094 25.16709899902344 3.260787963867188 28.9481201171875 C 1.862106323242188 46.32266998291016 3.120735168457031 92.46293640136719 3.252761840820313 97.11894226074219 L 43.859130859375 140.6991271972656 C 44.77655029296875 141.2113952636719 50.97431182861328 144.4958038330078 58.96735000610352 144.4958038330078 C 66.4344482421875 144.4958038330078 73.16319274902344 141.684814453125 78.96662902832031 136.1409606933594 C 82.69690704345703 132.5775146484375 85.37288665771484 127.9661407470703 86.92024993896484 122.4349212646484 C 88.16984558105469 117.9680023193359 88.69235229492188 112.8932800292969 88.47319030761719 107.3517150878906 C 88.13050079345703 98.68580627441406 86.05399322509766 91.55141448974609 85.67435455322266 90.31118011474609 C 83.98941802978516 88.38946533203125 67.42305755615234 69.50743103027344 50.4668083190918 50.62966156005859 C 40.01424789428711 38.99259948730469 31.46222686767578 29.635498046875 25.04827117919922 22.81831359863281 C 21.24604797363281 18.77705383300781 18.16539001464844 15.59785461425781 15.89183044433594 13.3690185546875 C 13.49649810791016 11.02079772949219 12.37384033203125 10.09684753417969 11.85971069335938 9.733749389648438 M 11.66976165771484 8.536392211914063 C 15.36373901367188 8.536392211914063 86.56578826904297 89.81108093261719 86.56578826904297 89.81108093261719 C 86.56578826904297 89.81108093261719 96.61437225341797 120.6654968261719 79.65738677978516 136.8640594482422 C 72.67546844482422 143.53369140625 65.26667785644531 145.4957885742188 58.96735382080078 145.4957885742188 C 49.96752166748047 145.4957885742188 43.23128890991211 141.4922027587891 43.23128890991211 141.4922027587891 L 2.264007568359375 97.52467346191406 C 2.264007568359375 97.52467346191406 0.7762451171875 47.34909820556641 2.264007568359375 28.86787414550781 C 2.978530883789063 19.98991394042969 8.581146240234375 11.02239990234375 11.52040863037109 8.712982177734375 C 11.52040863037109 8.59442138671875 11.57138824462891 8.536392211914063 11.66976165771484 8.536392211914063 Z" stroke="none" fill="rgba(209,208,206,0.61)"/>
    </g>
  </g>
  <g transform="matrix(1, 0, 0, 1, 0, 0)" filter="url(#Path_12)">
    <g id="Path_12-2" data-name="Path 12" transform="translate(176 -22.15)" fill="url(#linear-gradient-3)">
      <path d="M-60.647,28.15H39.37l93.29,94.181s-.213,33.374,0,39.538-3.23,15.5-8.559,22.125c-8.882,10.5-23.32,13.9-23.9,12.435S-60.647,28.15-60.647,28.15Z" stroke="none"/>
      <path d="M -58.29937744140625 29.15036010742188 C -50.38156890869141 37.39335632324219 -14.87583160400391 74.36251831054688 20.28033065795898 111.0499877929688 C 43.5858039855957 135.3705902099609 62.17975616455078 154.8104248046875 75.545654296875 168.8294982910156 C 83.48245239257813 177.1541442871094 89.64035034179688 183.6353607177734 93.84830474853516 188.0931396484375 C 99.07743835449219 193.6327514648438 100.4959335327148 195.1904144287109 100.9224700927734 195.7324829101563 C 100.9942245483398 195.7427520751953 101.1072998046875 195.7529449462891 101.273681640625 195.7529449462891 C 102.9135055541992 195.7529449462891 106.5802001953125 194.840087890625 110.7557525634766 192.8358917236328 C 114.2522048950195 191.1576385498047 119.2707977294922 188.1514129638672 123.3295593261719 183.358642578125 C 125.8034744262695 180.2825927734375 128.0035552978516 176.3927001953125 129.52490234375 172.4044952392578 C 131.0025787353516 168.5306701660156 131.76123046875 164.8016357421875 131.6610565185547 161.9043426513672 C 131.4625854492188 156.1643524169922 131.6343994140625 126.6103134155273 131.6579132080078 122.7406158447266 L 38.95325088500977 29.15036010742188 L -58.29937744140625 29.15036010742188 M -60.64662170410156 28.15036010742188 L 39.3702278137207 28.15036010742188 L 132.6604614257813 122.3317642211914 C 132.6604614257813 122.3317642211914 132.4473266601563 155.7056274414063 132.6604614257813 161.8697814941406 C 132.8735809326172 168.033935546875 129.4305114746094 177.37353515625 124.1011047363281 183.9949340820313 C 116.5117034912109 192.9642028808594 104.8659591674805 196.7529296875 101.2736740112305 196.7529296875 C 100.6616592407227 196.7529296875 100.2841186523438 196.6431732177734 100.1994552612305 196.4302673339844 C 99.61785888671875 194.9677429199219 -60.64662170410156 28.15036010742188 -60.64662170410156 28.15036010742188 Z" stroke="none" fill="rgba(217,212,212,0.39)"/>
    </g>
  </g>
  <g id="Component_4_3" data-name="Component 4 – 3" transform="translate(36 23.85)">
    <g transform="matrix(1, 0, 0, 1, -36, -23.85)" filter="url(#Rectangle_4)">
      <g id="Rectangle_4-2" data-name="Rectangle 4" transform="translate(36 23.85)" stroke="rgba(225,222,222,0.81)" stroke-width="1" fill="url(#linear-gradient-4)">
        <rect width="28" height="22" rx="5" stroke="none"/>
        <rect x="0.5" y="0.5" width="27" height="21" rx="4.5" fill="none"/>
      </g>
    </g>
    <g id="Component_2_2" data-name="Component 2 – 2" transform="translate(3.5 3.5)" opacity="0.85">
      <line id="Line_2" data-name="Line 2" y2="16" transform="translate(14)" fill="none" stroke="rgba(225,222,222,0.81)" stroke-width="2"/>
      <line id="Line_1" data-name="Line 1" y2="12" transform="translate(6 4)" fill="none" stroke="rgba(225,222,222,0.81)" stroke-linecap="round" stroke-width="2"/>
      <line id="Line_3" data-name="Line 3" x2="6" transform="translate(0 4)" fill="none" stroke="rgba(225,222,222,0.81)" stroke-width="2"/>
      <path id="Path_2" data-name="Path 2" d="M-.951,0H4" transform="translate(1 10)" fill="none" stroke="rgba(225,222,222,0.81)" stroke-width="2"/>
      <line id="Line_5" data-name="Line 5" x2="4" transform="translate(15 4)" fill="none" stroke="rgba(225,222,222,0.81)" stroke-width="2"/>
      <line id="Line_6" data-name="Line 6" x2="4" transform="translate(15 10)" fill="none" stroke="rgba(225,222,222,0.81)" stroke-width="2"/>
    </g>
  </g>
</svg>
